<svg width="1240" height="1240" viewBox="0 0 1240 1240" fill="none" xmlns="http://www.w3.org/2000/svg">
<rect width="1240" height="1240" fill="white"/>
<mask id="path-1-outside-1_1_4" maskUnits="userSpaceOnUse" x="401" y="340" width="437" height="508" fill="black">
<rect fill="white" x="401" y="340" width="437" height="508"/>
<path d="M570.283 458.495C570.283 453.398 569.819 448.302 568.893 443.205C568.429 437.645 567.039 432.78 564.723 428.61C562.869 423.977 559.858 420.27 555.688 417.49C551.981 414.71 546.653 413.32 539.703 413.32C530.899 413.32 523.486 416.1 517.463 421.66C514.683 414.247 513.293 407.528 513.293 401.505C513.293 394.092 514.451 386.91 516.768 379.96C519.548 372.547 523.718 366.06 529.278 360.5C534.838 354.94 541.788 350.538 550.128 347.295C558.931 343.588 569.588 341.735 582.098 341.735C609.898 341.735 631.443 350.075 646.733 366.755C662.023 383.435 669.668 406.37 669.668 435.56V847C657.158 847 644.879 846.073 632.833 844.22C621.249 842.367 610.593 838.66 600.863 833.1C591.596 827.077 584.183 818.273 578.623 806.69C573.063 795.107 570.283 779.585 570.283 760.125V458.495ZM502.868 847H495.918C483.871 847 472.288 845.842 461.168 843.525C450.048 841.208 440.086 837.038 431.283 831.015C422.943 824.992 415.993 816.652 410.433 805.995C405.336 795.338 402.788 781.438 402.788 764.295V342.43H413.908C425.028 342.43 435.916 343.82 446.573 346.6C457.229 348.917 466.728 353.318 475.068 359.805C483.408 365.828 490.126 374.168 495.223 384.825C500.319 395.482 502.868 409.15 502.868 425.83V847ZM737.083 458.495C737.083 453.398 736.619 448.302 735.693 443.205C735.229 437.645 733.839 432.78 731.523 428.61C729.669 423.977 726.658 420.27 722.488 417.49C718.781 414.71 713.453 413.32 706.503 413.32C697.699 413.32 690.286 416.1 684.263 421.66C681.483 414.247 680.093 407.528 680.093 401.505C680.093 394.092 681.251 386.91 683.568 379.96C686.348 372.547 690.518 366.06 696.078 360.5C701.638 354.94 708.588 350.538 716.928 347.295C725.731 343.588 736.388 341.735 748.898 341.735C776.698 341.735 798.243 350.075 813.533 366.755C828.823 383.435 836.468 406.37 836.468 435.56V847C823.958 847 811.679 846.073 799.633 844.22C788.049 842.367 777.393 838.66 767.663 833.1C758.396 827.077 750.983 818.273 745.423 806.69C739.863 795.107 737.083 779.585 737.083 760.125V458.495Z"/>
</mask>
<path d="M570.283 458.495C570.283 453.398 569.819 448.302 568.893 443.205C568.429 437.645 567.039 432.78 564.723 428.61C562.869 423.977 559.858 420.27 555.688 417.49C551.981 414.71 546.653 413.32 539.703 413.32C530.899 413.32 523.486 416.1 517.463 421.66C514.683 414.247 513.293 407.528 513.293 401.505C513.293 394.092 514.451 386.91 516.768 379.96C519.548 372.547 523.718 366.06 529.278 360.5C534.838 354.94 541.788 350.538 550.128 347.295C558.931 343.588 569.588 341.735 582.098 341.735C609.898 341.735 631.443 350.075 646.733 366.755C662.023 383.435 669.668 406.37 669.668 435.56V847C657.158 847 644.879 846.073 632.833 844.22C621.249 842.367 610.593 838.66 600.863 833.1C591.596 827.077 584.183 818.273 578.623 806.69C573.063 795.107 570.283 779.585 570.283 760.125V458.495ZM502.868 847H495.918C483.871 847 472.288 845.842 461.168 843.525C450.048 841.208 440.086 837.038 431.283 831.015C422.943 824.992 415.993 816.652 410.433 805.995C405.336 795.338 402.788 781.438 402.788 764.295V342.43H413.908C425.028 342.43 435.916 343.82 446.573 346.6C457.229 348.917 466.728 353.318 475.068 359.805C483.408 365.828 490.126 374.168 495.223 384.825C500.319 395.482 502.868 409.15 502.868 425.83V847ZM737.083 458.495C737.083 453.398 736.619 448.302 735.693 443.205C735.229 437.645 733.839 432.78 731.523 428.61C729.669 423.977 726.658 420.27 722.488 417.49C718.781 414.71 713.453 413.32 706.503 413.32C697.699 413.32 690.286 416.1 684.263 421.66C681.483 414.247 680.093 407.528 680.093 401.505C680.093 394.092 681.251 386.91 683.568 379.96C686.348 372.547 690.518 366.06 696.078 360.5C701.638 354.94 708.588 350.538 716.928 347.295C725.731 343.588 736.388 341.735 748.898 341.735C776.698 341.735 798.243 350.075 813.533 366.755C828.823 383.435 836.468 406.37 836.468 435.56V847C823.958 847 811.679 846.073 799.633 844.22C788.049 842.367 777.393 838.66 767.663 833.1C758.396 827.077 750.983 818.273 745.423 806.69C739.863 795.107 737.083 779.585 737.083 760.125V458.495Z" fill="black"/>
<path d="M568.893 443.205L567.896 443.288L567.9 443.336L567.909 443.384L568.893 443.205ZM564.723 428.61L563.794 428.981L563.818 429.04L563.848 429.096L564.723 428.61ZM555.688 417.49L555.088 418.29L555.11 418.307L555.133 418.322L555.688 417.49ZM517.463 421.66L516.526 422.011L517.048 423.403L518.141 422.395L517.463 421.66ZM516.768 379.96L515.831 379.609L515.825 379.626L515.819 379.644L516.768 379.96ZM529.278 360.5L528.57 359.793L529.278 360.5ZM550.128 347.295L550.49 348.227L550.503 348.222L550.516 348.217L550.128 347.295ZM669.668 847V848H670.668V847H669.668ZM632.833 844.22L632.675 845.207L632.681 845.208L632.833 844.22ZM600.863 833.1L600.318 833.938L600.342 833.954L600.366 833.968L600.863 833.1ZM578.623 806.69L577.721 807.123L578.623 806.69ZM502.868 847V848H503.868V847H502.868ZM461.168 843.525L460.964 844.504L461.168 843.525ZM431.283 831.015L430.697 831.826L430.707 831.833L430.718 831.84L431.283 831.015ZM410.433 805.995L409.53 806.426L409.538 806.442L409.546 806.458L410.433 805.995ZM402.788 342.43V341.43H401.788V342.43H402.788ZM446.573 346.6L446.32 347.568L446.34 347.573L446.36 347.577L446.573 346.6ZM475.068 359.805L474.454 360.594L474.468 360.605L474.482 360.616L475.068 359.805ZM495.223 384.825L496.125 384.394L495.223 384.825ZM735.693 443.205L734.696 443.288L734.7 443.336L734.709 443.384L735.693 443.205ZM731.523 428.61L730.594 428.981L730.618 429.04L730.648 429.096L731.523 428.61ZM722.488 417.49L721.888 418.29L721.91 418.307L721.933 418.322L722.488 417.49ZM684.263 421.66L683.326 422.011L683.848 423.403L684.941 422.395L684.263 421.66ZM683.568 379.96L682.631 379.609L682.625 379.626L682.619 379.644L683.568 379.96ZM696.078 360.5L695.371 359.793L696.078 360.5ZM716.928 347.295L717.29 348.227L717.303 348.222L717.316 348.217L716.928 347.295ZM836.468 847V848H837.468V847H836.468ZM799.633 844.22L799.475 845.207L799.481 845.208L799.633 844.22ZM767.663 833.1L767.118 833.938L767.142 833.954L767.167 833.968L767.663 833.1ZM745.423 806.69L746.324 806.257L745.423 806.69ZM571.283 458.495C571.283 453.337 570.814 448.181 569.876 443.026L567.909 443.384C568.825 448.422 569.283 453.459 569.283 458.495H571.283ZM569.889 443.122C569.416 437.444 567.993 432.438 565.597 428.124L563.848 429.096C566.086 433.122 567.443 437.846 567.896 443.288L569.889 443.122ZM565.651 428.239C563.722 423.417 560.58 419.55 556.242 416.658L555.133 418.322C559.135 420.99 562.016 424.537 563.794 428.981L565.651 428.239ZM556.288 416.69C552.341 413.73 546.766 412.32 539.703 412.32V414.32C546.539 414.32 551.621 415.69 555.088 418.29L556.288 416.69ZM539.703 412.32C530.668 412.32 523.007 415.181 516.784 420.925L518.141 422.395C523.965 417.019 531.13 414.32 539.703 414.32V412.32ZM518.399 421.309C515.649 413.974 514.293 407.377 514.293 401.505H512.293C512.293 407.679 513.717 414.519 516.526 422.011L518.399 421.309ZM514.293 401.505C514.293 394.198 515.434 387.123 517.716 380.276L515.819 379.644C513.468 386.697 512.293 393.985 512.293 401.505H514.293ZM517.704 380.311C520.434 373.03 524.526 366.665 529.985 361.207L528.57 359.793C522.909 365.455 518.661 372.063 515.831 379.609L517.704 380.311ZM529.985 361.207C535.434 355.758 542.262 351.427 550.49 348.227L549.765 346.363C541.314 349.65 534.241 354.122 528.57 359.793L529.985 361.207ZM550.516 348.217C559.165 344.575 569.682 342.735 582.098 342.735V340.735C569.494 340.735 558.697 342.602 549.74 346.373L550.516 348.217ZM582.098 342.735C609.686 342.735 630.937 351.003 645.995 367.431L647.47 366.079C631.948 349.147 610.109 340.735 582.098 340.735V342.735ZM645.995 367.431C661.072 383.878 668.668 406.545 668.668 435.56H670.668C670.668 406.195 662.973 382.992 647.47 366.079L645.995 367.431ZM668.668 435.56V847H670.668V435.56H668.668ZM669.668 846C657.207 846 644.98 845.077 632.985 843.232L632.681 845.208C644.779 847.07 657.108 848 669.668 848V846ZM632.991 843.233C621.521 841.397 610.979 837.729 601.359 832.232L600.366 833.968C610.206 839.591 620.978 843.336 632.675 845.207L632.991 843.233ZM601.408 832.262C592.318 826.354 585.018 817.703 579.524 806.257L577.721 807.123C583.347 818.844 590.874 827.8 600.318 833.938L601.408 832.262ZM579.524 806.257C574.054 794.86 571.283 779.505 571.283 760.125H569.283C569.283 779.665 572.072 795.353 577.721 807.123L579.524 806.257ZM571.283 760.125V458.495H569.283V760.125H571.283ZM502.868 846H495.918V848H502.868V846ZM495.918 846C483.935 846 472.421 844.848 461.372 842.546L460.964 844.504C472.155 846.835 483.807 848 495.918 848V846ZM461.372 842.546C450.372 840.255 440.535 836.134 431.847 830.19L430.718 831.84C439.637 837.943 449.723 842.162 460.964 844.504L461.372 842.546ZM431.868 830.204C423.674 824.286 416.819 816.074 411.319 805.532L409.546 806.458C415.166 817.229 422.211 825.697 430.697 831.826L431.868 830.204ZM411.335 805.564C406.325 795.088 403.788 781.351 403.788 764.295H401.788C401.788 781.525 404.347 795.588 409.53 806.426L411.335 805.564ZM403.788 764.295V342.43H401.788V764.295H403.788ZM402.788 343.43H413.908V341.43H402.788V343.43ZM413.908 343.43C424.943 343.43 435.747 344.809 446.32 347.568L446.825 345.632C436.085 342.831 425.112 341.43 413.908 341.43V343.43ZM446.36 347.577C456.875 349.863 466.236 354.203 474.454 360.594L475.682 359.016C467.22 352.434 457.583 347.97 446.785 345.623L446.36 347.577ZM474.482 360.616C482.668 366.527 489.285 374.728 494.32 385.256L496.125 384.394C490.967 373.609 484.148 365.129 475.653 358.994L474.482 360.616ZM494.32 385.256C499.332 395.735 501.868 409.242 501.868 425.83H503.868C503.868 409.058 501.307 395.229 496.125 384.394L494.32 385.256ZM501.868 425.83V847H503.868V425.83H501.868ZM738.083 458.495C738.083 453.337 737.614 448.181 736.677 443.026L734.709 443.384C735.625 448.422 736.083 453.459 736.083 458.495H738.083ZM736.689 443.122C736.216 437.444 734.793 432.438 732.397 428.124L730.648 429.096C732.885 433.122 734.243 437.846 734.696 443.288L736.689 443.122ZM732.451 428.239C730.522 423.417 727.38 419.55 723.042 416.658L721.933 418.322C725.935 420.99 728.816 424.537 730.594 428.981L732.451 428.239ZM723.088 416.69C719.141 413.73 713.566 412.32 706.503 412.32V414.32C713.339 414.32 718.421 415.69 721.888 418.29L723.088 416.69ZM706.503 412.32C697.468 412.32 689.807 415.181 683.584 420.925L684.941 422.395C690.765 417.019 697.93 414.32 706.503 414.32V412.32ZM685.199 421.309C682.449 413.974 681.093 407.377 681.093 401.505H679.093C679.093 407.679 680.517 414.519 683.326 422.011L685.199 421.309ZM681.093 401.505C681.093 394.198 682.234 387.123 684.516 380.276L682.619 379.644C680.268 386.697 679.093 393.985 679.093 401.505H681.093ZM684.504 380.311C687.234 373.03 691.326 366.665 696.785 361.207L695.371 359.793C689.709 365.455 685.461 372.063 682.631 379.609L684.504 380.311ZM696.785 361.207C702.234 355.758 709.061 351.427 717.29 348.227L716.565 346.363C708.114 349.65 701.041 354.122 695.371 359.793L696.785 361.207ZM717.316 348.217C725.965 344.575 736.482 342.735 748.898 342.735V340.735C736.294 340.735 725.497 342.602 716.54 346.373L717.316 348.217ZM748.898 342.735C776.486 342.735 797.737 351.003 812.795 367.431L814.27 366.079C798.748 349.147 776.909 340.735 748.898 340.735V342.735ZM812.795 367.431C827.872 383.878 835.468 406.545 835.468 435.56H837.468C837.468 406.195 829.773 382.992 814.27 366.079L812.795 367.431ZM835.468 435.56V847H837.468V435.56H835.468ZM836.468 846C824.007 846 811.78 845.077 799.785 843.232L799.481 845.208C811.579 847.07 823.908 848 836.468 848V846ZM799.791 843.233C788.321 841.397 777.779 837.729 768.159 832.232L767.167 833.968C777.006 839.591 787.778 843.336 799.475 845.207L799.791 843.233ZM768.208 832.262C759.118 826.354 751.818 817.703 746.324 806.257L744.521 807.123C750.147 818.844 757.674 827.8 767.118 833.938L768.208 832.262ZM746.324 806.257C740.854 794.86 738.083 779.505 738.083 760.125H736.083C736.083 779.665 738.872 795.353 744.521 807.123L746.324 806.257ZM738.083 760.125V458.495H736.083V760.125H738.083Z" fill="black" mask="url(#path-1-outside-1_1_4)"/>
<line x1="282.049" y1="460.5" x2="959.049" y2="462.503" stroke="black" stroke-width="33"/>
</svg>
